<svg width="439" height="87" viewBox="0 0 439 87" fill="none" xmlns="http://www.w3.org/2000/svg">
<path d="M31.8463 25.0465H35.2882V28.4884H31.8463V25.0465ZM31.8463 28.4884H35.2882V31.9302H31.8463V28.4884ZM28.4045 28.4884H31.8463V31.9302H28.4045V28.4884ZM28.4045 25.0465H31.8463V28.4884H28.4045V25.0465ZM28.4045 31.9302H31.8463V35.3721H28.4045V31.9302ZM28.4045 35.3721H31.8463V38.814H28.4045V35.3721ZM31.8463 35.3721H35.2882V38.814H31.8463V35.3721ZM31.8463 31.9302H35.2882V35.3721H31.8463V31.9302ZM24.9626 28.4884H28.4045V31.9302H24.9626V28.4884ZM21.5208 28.4884H24.9626V31.9302H21.5208V28.4884ZM18.0789 28.4884H21.5208V31.9302H18.0789V28.4884ZM14.637 28.4884H18.0789V31.9302H14.637V28.4884ZM14.637 31.9302H18.0789V35.3721H14.637V31.9302ZM18.0789 31.9302H21.5208V35.3721H18.0789V31.9302ZM21.5208 31.9302H24.9626V35.3721H21.5208V31.9302ZM24.9626 31.9302H28.4045V35.3721H24.9626V31.9302ZM28.4045 38.814H31.8463V42.2558H28.4045V38.814ZM31.8463 38.814H35.2882V42.2558H31.8463V38.814ZM24.9626 42.2558H28.4045V45.6977H24.9626V42.2558ZM21.5208 42.2558H24.9626V45.6977H21.5208V42.2558ZM18.0789 42.2558H21.5208V45.6977H18.0789V42.2558ZM14.637 42.2558H18.0789V45.6977H14.637V42.2558ZM14.637 45.6977H18.0789V49.1395H14.637V45.6977ZM18.0789 45.6977H21.5208V49.1395H18.0789V45.6977ZM21.5208 45.6977H24.9626V49.1395H21.5208V45.6977ZM28.4045 45.6977H31.8463V49.1395H28.4045V45.6977ZM31.8463 45.6977H35.2882V49.1395H31.8463V45.6977ZM31.8463 42.2558H35.2882V45.6977H31.8463V42.2558ZM28.4045 42.2558H31.8463V45.6977H28.4045V42.2558ZM24.9626 45.6977H28.4045V49.1395H24.9626V45.6977ZM28.4045 49.1395H31.8463V52.5814H28.4045V49.1395ZM31.8463 49.1395H35.2882V52.5814H31.8463V49.1395ZM31.8463 52.5814H35.2882V56.0233H31.8463V52.5814ZM28.4045 52.5814H31.8463V56.0233H28.4045V52.5814ZM28.4045 59.4651H31.8463V62.907H28.4045V59.4651ZM31.8463 59.4651H35.2882V62.907H31.8463V59.4651ZM31.8463 62.907H35.2882V66.3488H31.8463V62.907ZM28.4045 62.907H31.8463V66.3488H28.4045V62.907ZM49.0556 25.0465H52.4975V28.4884H49.0556V25.0465ZM42.1719 25.0465H45.6138V28.4884H42.1719V25.0465ZM45.6138 25.0465H49.0556V28.4884H45.6138V25.0465ZM49.0556 28.4884H52.4975V31.9302H49.0556V28.4884ZM52.4975 28.4884H55.9394V31.9302H52.4975V28.4884ZM52.4975 25.0465H55.9394V28.4884H52.4975V25.0465ZM45.6138 28.4884H49.0556V31.9302H45.6138V28.4884ZM42.1719 28.4884H45.6138V31.9302H42.1719V28.4884ZM42.1719 31.9302H45.6138V35.3721H42.1719V31.9302ZM42.1719 35.3721H45.6138V38.814H42.1719V35.3721ZM42.1719 38.814H45.6138V42.2558H42.1719V38.814ZM45.6138 38.814H49.0556V42.2558H45.6138V38.814ZM49.0556 38.814H52.4975V42.2558H49.0556V38.814ZM49.0556 35.3721H52.4975V38.814H49.0556V35.3721ZM52.4975 35.3721H55.9394V38.814H52.4975V35.3721ZM52.4975 31.9302H55.9394V35.3721H52.4975V31.9302ZM52.4975 38.814H55.9394V42.2558H52.4975V38.814ZM49.0556 31.9302H52.4975V35.3721H49.0556V31.9302ZM45.6138 31.9302H49.0556V35.3721H45.6138V31.9302ZM45.6138 35.3721H49.0556V38.814H45.6138V35.3721ZM42.1719 42.2558H45.6138V45.6977H42.1719V42.2558ZM42.1719 45.6977H45.6138V49.1395H42.1719V45.6977ZM42.1719 49.1395H45.6138V52.5814H42.1719V49.1395ZM42.1719 52.5814H45.6138V56.0233H42.1719V52.5814ZM42.1719 59.4651H45.6138V62.907H42.1719V59.4651ZM42.1719 62.907H45.6138V66.3488H42.1719V62.907ZM45.6138 62.907H49.0556V66.3488H45.6138V62.907ZM49.0556 62.907H52.4975V66.3488H49.0556V62.907ZM52.4975 62.907H55.9394V66.3488H52.4975V62.907ZM52.4975 59.4651H55.9394V62.907H52.4975V59.4651ZM52.4975 52.5814H55.9394V56.0233H52.4975V52.5814ZM52.4975 49.1395H55.9394V52.5814H52.4975V49.1395ZM52.4975 45.6977H55.9394V49.1395H52.4975V45.6977ZM49.0556 45.6977H52.4975V49.1395H49.0556V45.6977ZM49.0556 42.2558H52.4975V45.6977H49.0556V42.2558ZM49.0556 49.1395H52.4975V52.5814H49.0556V49.1395ZM45.6138 52.5814H49.0556V56.0233H45.6138V52.5814ZM45.6138 59.4651H49.0556V62.907H45.6138V59.4651ZM49.0556 59.4651H52.4975V62.907H49.0556V59.4651ZM49.0556 52.5814H52.4975V56.0233H49.0556V52.5814ZM52.4975 42.2558H55.9394V45.6977H52.4975V42.2558ZM45.6138 42.2558H49.0556V45.6977H45.6138V42.2558ZM45.6138 45.6977H49.0556V49.1395H45.6138V45.6977ZM45.6138 49.1395H49.0556V52.5814H45.6138V49.1395ZM28.4045 56.0233H31.8463V59.4651H28.4045V56.0233ZM31.8463 56.0233H35.2882V59.4651H31.8463V56.0233ZM42.1719 56.0233H45.6138V59.4651H42.1719V56.0233ZM45.6138 56.0233H49.0556V59.4651H45.6138V56.0233ZM49.0556 56.0233H52.4975V59.4651H49.0556V56.0233ZM52.4975 56.0233H55.9394V59.4651H52.4975V56.0233ZM55.9394 35.3721H59.3812V38.814H55.9394V35.3721ZM59.3812 35.3721H62.8231V38.814H59.3812V35.3721ZM55.9394 38.814H59.3812V42.2558H55.9394V38.814ZM62.8231 31.9302H66.2649V35.3721H62.8231V31.9302ZM66.2649 28.4884H69.7068V31.9302H66.2649V28.4884ZM62.8231 28.4884H66.2649V31.9302H62.8231V28.4884ZM69.7068 25.0465H73.1487V28.4884H69.7068V25.0465ZM69.7068 21.6047H73.1487V25.0465H69.7068V21.6047ZM73.1487 21.6047H76.5905V25.0465H73.1487V21.6047ZM76.5905 21.6047H80.0324V25.0465H76.5905V21.6047ZM80.0324 21.6047H83.4742V25.0465H80.0324V21.6047ZM80.0324 25.0465H83.4742V28.4884H80.0324V25.0465ZM76.5905 25.0465H80.0324V28.4884H76.5905V25.0465ZM73.1487 25.0465H76.5905V28.4884H73.1487V25.0465ZM80.0324 31.9302H83.4742V35.3721H80.0324V31.9302ZM80.0324 28.4884H83.4742V31.9302H80.0324V28.4884ZM76.5905 28.4884H80.0324V31.9302H76.5905V28.4884ZM76.5905 31.9302H80.0324V35.3721H76.5905V31.9302ZM76.5905 35.3721H80.0324V38.814H76.5905V35.3721ZM80.0324 38.814H83.4742V42.2558H80.0324V38.814ZM80.0324 35.3721H83.4742V38.814H80.0324V35.3721ZM80.0324 42.2558H83.4742V45.6977H80.0324V42.2558ZM76.5905 45.6977H80.0324V49.1395H76.5905V45.6977ZM80.0324 45.6977H83.4742V49.1395H80.0324V45.6977ZM83.4742 28.4884H86.9161V31.9302H83.4742V28.4884ZM86.9161 28.4884H90.358V31.9302H86.9161V28.4884ZM86.9161 31.9302H90.358V35.3721H86.9161V31.9302ZM86.9161 35.3721H90.358V38.814H86.9161V35.3721ZM83.4742 35.3721H86.9161V38.814H83.4742V35.3721ZM83.4742 31.9302H86.9161V35.3721H83.4742V31.9302ZM83.4742 38.814H86.9161V42.2558H83.4742V38.814ZM86.9161 38.814H90.358V42.2558H86.9161V38.814ZM73.1487 49.1395H76.5905V52.5814H73.1487V49.1395ZM69.7068 49.1395H73.1487V52.5814H69.7068V49.1395ZM69.7068 52.5814H73.1487V56.0233H69.7068V52.5814ZM73.1487 52.5814H76.5905V56.0233H73.1487V52.5814ZM66.2649 49.1395H69.7068V52.5814H66.2649V49.1395ZM66.2649 52.5814H69.7068V56.0233H66.2649V52.5814ZM62.8231 52.5814H66.2649V56.0233H62.8231V52.5814ZM62.8231 49.1395H66.2649V52.5814H62.8231V49.1395ZM80.0324 56.0233H83.4742V59.4651H80.0324V56.0233ZM80.0324 59.4651H83.4742V62.907H80.0324V59.4651ZM76.5905 59.4651H80.0324V62.907H76.5905V59.4651ZM76.5905 62.907H80.0324V66.3488H76.5905V62.907ZM76.5905 66.3488H80.0324V69.7907H76.5905V66.3488ZM80.0324 66.3488H83.4742V69.7907H80.0324V66.3488ZM80.0324 62.907H83.4742V66.3488H80.0324V62.907ZM76.5905 69.7907H80.0324V73.2326H76.5905V69.7907ZM80.0324 69.7907H83.4742V73.2326H80.0324V69.7907ZM80.0324 76.6744H83.4742V80.1163H80.0324V76.6744ZM76.5905 76.6744H80.0324V80.1163H76.5905V76.6744ZM76.5905 73.2326H80.0324V76.6744H76.5905V73.2326ZM80.0324 73.2326H83.4742V76.6744H80.0324V73.2326ZM86.9161 80.1163H90.358V83.5581H86.9161V80.1163ZM83.4742 80.1163H86.9161V83.5581H83.4742V80.1163ZM83.4742 83.5581H86.9161V87H83.4742V83.5581ZM86.9161 83.5581H90.358V87H86.9161V83.5581ZM90.358 83.5581H93.7998V87H90.358V83.5581ZM90.358 80.1163H93.7998V83.5581H90.358V80.1163ZM93.7998 83.5581H97.2417V87H93.7998V83.5581ZM83.4742 62.907H86.9161V66.3488H83.4742V62.907ZM83.4742 66.3488H86.9161V69.7907H83.4742V66.3488ZM86.9161 66.3488H90.358V69.7907H86.9161V66.3488ZM86.9161 69.7907H90.358V73.2326H86.9161V69.7907ZM86.9161 62.907H90.358V66.3488H86.9161V62.907ZM86.9161 73.2326H90.358V76.6744H86.9161V73.2326ZM86.9161 76.6744H90.358V80.1163H86.9161V76.6744ZM83.4742 76.6744H86.9161V80.1163H83.4742V76.6744ZM83.4742 73.2326H86.9161V76.6744H83.4742V73.2326ZM83.4742 69.7907H86.9161V73.2326H83.4742V69.7907ZM80.0324 80.1163H83.4742V83.5581H80.0324V80.1163ZM83.4742 59.4651H86.9161V62.907H83.4742V59.4651ZM76.5905 56.0233H80.0324V59.4651H76.5905V56.0233ZM73.1487 56.0233H76.5905V59.4651H73.1487V56.0233ZM76.5905 49.1395H80.0324V52.5814H76.5905V49.1395ZM83.4742 42.2558H86.9161V45.6977H83.4742V42.2558ZM73.1487 45.6977H76.5905V49.1395H73.1487V45.6977ZM59.3812 31.9302H62.8231V35.3721H59.3812V31.9302ZM66.2649 25.0465H69.7068V28.4884H66.2649V25.0465ZM59.3812 38.814H62.8231V42.2558H59.3812V38.814ZM62.8231 35.3721H66.2649V38.814H62.8231V35.3721ZM66.2649 31.9302H69.7068V35.3721H66.2649V31.9302ZM69.7068 28.4884H73.1487V31.9302H69.7068V28.4884ZM55.9394 42.2558H59.3812V45.6977H55.9394V42.2558ZM83.4742 25.0465H86.9161V28.4884H83.4742V25.0465ZM73.1487 28.4884H76.5905V31.9302H73.1487V28.4884ZM73.1487 31.9302H76.5905V35.3721H73.1487V31.9302ZM90.358 35.3721H93.7998V38.814H90.358V35.3721ZM90.358 31.9302H93.7998V35.3721H90.358V31.9302ZM76.5905 42.2558H80.0324V45.6977H76.5905V42.2558ZM76.5905 52.5814H80.0324V56.0233H76.5905V52.5814ZM31.8463 69.7907H35.2882V73.2326H31.8463V69.7907ZM28.4045 73.2326H31.8463V76.6744H28.4045V73.2326ZM31.8463 73.2326H35.2882V76.6744H31.8463V73.2326ZM38.7301 73.2326H42.1719V76.6744H38.7301V73.2326ZM38.7301 76.6744H42.1719V80.1163H38.7301V76.6744ZM31.8463 76.6744H35.2882V80.1163H31.8463V76.6744ZM42.1719 76.6744H45.6138V80.1163H42.1719V76.6744ZM62.8231 73.2326H66.2649V76.6744H62.8231V73.2326ZM62.8231 76.6744H66.2649V80.1163H62.8231V76.6744ZM59.3812 76.6744H62.8231V80.1163H59.3812V76.6744ZM66.2649 69.7907H69.7068V73.2326H66.2649V69.7907ZM55.9394 80.1163H59.3812V83.5581H55.9394V80.1163ZM52.4975 80.1163H55.9394V83.5581H52.4975V80.1163ZM52.4975 83.5581H55.9394V87H52.4975V83.5581ZM55.9394 83.5581H59.3812V87H55.9394V83.5581ZM45.6138 80.1163H49.0556V83.5581H45.6138V80.1163ZM42.1719 83.5581H45.6138V87H42.1719V83.5581ZM45.6138 83.5581H49.0556V87H45.6138V83.5581ZM42.1719 80.1163H45.6138V83.5581H42.1719V80.1163ZM59.3812 80.1163H62.8231V83.5581H59.3812V80.1163ZM66.2649 73.2326H69.7068V76.6744H66.2649V73.2326ZM24.9626 76.6744H28.4045V80.1163H24.9626V76.6744ZM38.7301 69.7907H42.1719V73.2326H38.7301V69.7907ZM21.5208 80.1163H24.9626V83.5581H21.5208V80.1163ZM38.7301 80.1163H42.1719V83.5581H38.7301V80.1163ZM45.6138 76.6744H49.0556V80.1163H45.6138V76.6744ZM52.4975 76.6744H55.9394V80.1163H52.4975V76.6744ZM55.9394 76.6744H59.3812V80.1163H55.9394V76.6744ZM18.0789 83.5581H21.5208V87H18.0789V83.5581ZM24.9626 73.2326H28.4045V76.6744H24.9626V73.2326ZM21.5208 76.6744H24.9626V80.1163H21.5208V76.6744ZM18.0789 80.1163H21.5208V83.5581H18.0789V80.1163ZM28.4045 76.6744H31.8463V80.1163H28.4045V76.6744ZM28.4045 69.7907H31.8463V73.2326H28.4045V69.7907ZM42.1719 73.2326H45.6138V76.6744H42.1719V73.2326ZM45.6138 73.2326H49.0556V76.6744H45.6138V73.2326ZM35.2882 69.7907H38.7301V73.2326H35.2882V69.7907ZM35.2882 73.2326H38.7301V76.6744H35.2882V73.2326ZM35.2882 76.6744H38.7301V80.1163H35.2882V76.6744ZM49.0556 76.6744H52.4975V80.1163H49.0556V76.6744ZM49.0556 80.1163H52.4975V83.5581H49.0556V80.1163ZM49.0556 83.5581H52.4975V87H49.0556V83.5581ZM49.0556 69.7907H52.4975V73.2326H49.0556V69.7907ZM45.6138 69.7907H49.0556V73.2326H45.6138V69.7907ZM42.1719 69.7907H45.6138V73.2326H42.1719V69.7907ZM52.4975 69.7907H55.9394V73.2326H52.4975V69.7907ZM52.4975 73.2326H55.9394V76.6744H52.4975V73.2326ZM49.0556 73.2326H52.4975V76.6744H49.0556V73.2326ZM55.9394 73.2326H59.3812V76.6744H55.9394V73.2326ZM42.1719 14.7209H45.6138V18.1628H42.1719V14.7209ZM45.6138 14.7209H49.0556V18.1628H45.6138V14.7209ZM49.0556 14.7209H52.4975V18.1628H49.0556V14.7209ZM52.4975 14.7209H55.9394V18.1628H52.4975V14.7209ZM52.4975 18.1628H55.9394V21.6047H52.4975V18.1628ZM49.0556 18.1628H52.4975V21.6047H49.0556V18.1628ZM45.6138 18.1628H49.0556V21.6047H45.6138V18.1628ZM42.1719 18.1628H45.6138V21.6047H42.1719V18.1628ZM42.1719 21.6047H45.6138V25.0465H42.1719V21.6047ZM45.6138 21.6047H49.0556V25.0465H45.6138V21.6047ZM49.0556 21.6047H52.4975V25.0465H49.0556V21.6047ZM52.4975 21.6047H55.9394V25.0465H52.4975V21.6047ZM42.1719 11.2791H45.6138V14.7209H42.1719V11.2791ZM4.31146 7.83721H7.75332V11.2791H4.31146V7.83721ZM0.869595 7.83721H4.31146V11.2791H0.869595V7.83721ZM0.869595 11.2791H4.31146V14.7209H0.869595V11.2791ZM7.75332 4.39534H11.1952V7.83721H7.75332V4.39534ZM7.75332 0.953491H11.1952V4.39534H7.75332V0.953491ZM11.1952 0.953491H14.637V4.39534H11.1952V0.953491ZM11.1952 4.39534H14.637V7.83721H11.1952V4.39534ZM14.637 0.953491H18.0789V4.39534H14.637V0.953491ZM18.0789 4.39534H21.5208V7.83721H18.0789V4.39534ZM14.637 4.39534H18.0789V7.83721H14.637V4.39534ZM14.637 7.83721H18.0789V11.2791H14.637V7.83721ZM18.0789 7.83721H21.5208V11.2791H18.0789V7.83721ZM18.0789 11.2791H21.5208V14.7209H18.0789V11.2791ZM21.5208 7.83721H24.9626V11.2791H21.5208V7.83721ZM24.9626 7.83721H28.4045V11.2791H24.9626V7.83721ZM24.9626 11.2791H28.4045V14.7209H24.9626V11.2791ZM21.5208 11.2791H24.9626V14.7209H21.5208V11.2791ZM31.8463 14.7209H35.2882V18.1628H31.8463V14.7209ZM28.4045 14.7209H31.8463V18.1628H28.4045V14.7209ZM28.4045 18.1628H31.8463V21.6047H28.4045V18.1628ZM31.8463 18.1628H35.2882V21.6047H31.8463V18.1628ZM31.8463 21.6047H35.2882V25.0465H31.8463V21.6047ZM28.4045 21.6047H31.8463V25.0465H28.4045V21.6047ZM4.31146 4.39534H7.75332V7.83721H4.31146V4.39534ZM18.0789 0.953491H21.5208V4.39534H18.0789V0.953491ZM21.5208 4.39534H24.9626V7.83721H21.5208V4.39534ZM31.8463 11.2791H35.2882V14.7209H31.8463V11.2791ZM24.9626 14.7209H28.4045V18.1628H24.9626V14.7209ZM28.4045 11.2791H31.8463V14.7209H28.4045V11.2791ZM21.5208 14.7209H24.9626V18.1628H21.5208V14.7209ZM24.9626 18.1628H28.4045V21.6047H24.9626V18.1628ZM21.5208 0.953491H24.9626V4.39534H21.5208V0.953491ZM24.9626 4.39534H28.4045V7.83721H24.9626V4.39534ZM28.4045 7.83721H31.8463V11.2791H28.4045V7.83721ZM11.1952 7.83721H14.637V11.2791H11.1952V7.83721ZM14.637 11.2791H18.0789V14.7209H14.637V11.2791ZM18.0789 14.7209H21.5208V18.1628H18.0789V14.7209ZM21.5208 18.1628H24.9626V21.6047H21.5208V18.1628ZM24.9626 21.6047H28.4045V25.0465H24.9626V21.6047ZM35.2882 11.2791H38.7301V14.7209H35.2882V11.2791ZM38.7301 11.2791H42.1719V14.7209H38.7301V11.2791ZM38.7301 7.83721H42.1719V11.2791H38.7301V7.83721ZM35.2882 7.83721H38.7301V11.2791H35.2882V7.83721ZM49.0556 11.2791H52.4975V14.7209H49.0556V11.2791ZM49.0556 7.83721H52.4975V11.2791H49.0556V7.83721ZM52.4975 7.83721H55.9394V11.2791H52.4975V7.83721ZM52.4975 11.2791H55.9394V14.7209H52.4975V11.2791ZM55.9394 7.83721H59.3812V11.2791H55.9394V7.83721ZM59.3812 7.83721H62.8231V11.2791H59.3812V7.83721ZM62.8231 7.83721H66.2649V11.2791H62.8231V7.83721ZM62.8231 11.2791H66.2649V14.7209H62.8231V11.2791ZM59.3812 11.2791H62.8231V14.7209H59.3812V11.2791ZM66.2649 7.83721H69.7068V11.2791H66.2649V7.83721ZM66.2649 11.2791H69.7068V14.7209H66.2649V11.2791ZM55.9394 11.2791H59.3812V14.7209H55.9394V11.2791ZM69.7068 7.83721H73.1487V11.2791H69.7068V7.83721ZM73.1487 7.83721H76.5905V11.2791H73.1487V7.83721ZM73.1487 11.2791H76.5905V14.7209H73.1487V11.2791ZM69.7068 11.2791H73.1487V14.7209H69.7068V11.2791ZM55.9394 4.39534H59.3812V7.83721H55.9394V4.39534ZM59.3812 4.39534H62.8231V7.83721H59.3812V4.39534ZM59.3812 0.953491H62.8231V4.39534H59.3812V0.953491ZM62.8231 0.953491H66.2649V4.39534H62.8231V0.953491ZM66.2649 4.39534H69.7068V7.83721H66.2649V4.39534ZM62.8231 4.39534H66.2649V7.83721H62.8231V4.39534ZM76.5905 4.39534H80.0324V7.83721H76.5905V4.39534ZM80.0324 0.953491H83.4742V4.39534H80.0324V0.953491ZM80.0324 4.39534H83.4742V7.83721H80.0324V4.39534ZM76.5905 7.83721H80.0324V11.2791H76.5905V7.83721ZM52.4975 4.39534H55.9394V7.83721H52.4975V4.39534ZM55.9394 0.953491H59.3812V4.39534H55.9394V0.953491ZM45.6138 11.2791H49.0556V14.7209H45.6138V11.2791ZM55.9394 14.7209H59.3812V18.1628H55.9394V14.7209ZM114.39 42.2558H117.832V45.6977H114.39V42.2558ZM117.832 42.2558H121.274V45.6977H117.832V42.2558ZM117.832 45.6977H121.274V49.1395H117.832V45.6977ZM121.274 42.2558H124.716V45.6977H121.274V42.2558ZM110.949 42.2558H114.39V45.6977H110.949V42.2558ZM110.949 45.6977H114.39V49.1395H110.949V45.6977ZM110.949 52.5814H114.39V56.0233H110.949V52.5814ZM110.949 56.0233H114.39V59.4651H110.949V56.0233ZM110.949 59.4651H114.39V62.907H110.949V59.4651ZM110.949 62.907H114.39V66.3488H110.949V62.907ZM110.949 66.3488H114.39V69.7907H110.949V66.3488ZM110.949 69.7907H114.39V73.2326H110.949V69.7907ZM114.39 69.7907H117.832V73.2326H114.39V69.7907ZM117.832 69.7907H121.274V73.2326H117.832V69.7907ZM117.832 66.3488H121.274V69.7907H117.832V66.3488ZM121.274 66.3488H124.716V69.7907H121.274V66.3488ZM121.274 62.907H124.716V66.3488H121.274V62.907ZM121.274 56.0233H124.716V59.4651H121.274V56.0233ZM121.274 52.5814H124.716V56.0233H121.274V52.5814ZM121.274 49.1395H124.716V52.5814H121.274V49.1395ZM121.274 45.6977H124.716V49.1395H121.274V45.6977ZM117.832 49.1395H121.274V52.5814H117.832V49.1395ZM117.832 52.5814H121.274V56.0233H117.832V52.5814ZM117.832 56.0233H121.274V59.4651H117.832V56.0233ZM117.832 59.4651H121.274V62.907H117.832V59.4651ZM117.832 62.907H121.274V66.3488H117.832V62.907ZM121.274 59.4651H124.716V62.907H121.274V59.4651ZM114.39 59.4651H117.832V62.907H114.39V59.4651ZM114.39 56.0233H117.832V59.4651H114.39V56.0233ZM114.39 52.5814H117.832V56.0233H114.39V52.5814ZM114.39 49.1395H117.832V52.5814H114.39V49.1395ZM114.39 45.6977H117.832V49.1395H114.39V45.6977ZM110.949 49.1395H114.39V52.5814H110.949V49.1395ZM114.39 62.907H117.832V66.3488H114.39V62.907ZM114.39 66.3488H117.832V69.7907H114.39V66.3488ZM107.507 76.6744H110.949V80.1163H107.507V76.6744ZM104.065 76.6744H107.507V80.1163H104.065V76.6744ZM104.065 73.2326H107.507V76.6744H104.065V73.2326ZM107.507 73.2326H110.949V76.6744H107.507V73.2326ZM110.949 73.2326H114.39V76.6744H110.949V73.2326ZM110.949 76.6744H114.39V80.1163H110.949V76.6744ZM114.39 76.6744H117.832V80.1163H114.39V76.6744ZM117.832 76.6744H121.274V80.1163H117.832V76.6744ZM121.274 76.6744H124.716V80.1163H121.274V76.6744ZM121.274 73.2326H124.716V76.6744H121.274V73.2326ZM121.274 69.7907H124.716V73.2326H121.274V69.7907ZM117.832 73.2326H121.274V76.6744H117.832V73.2326ZM114.39 73.2326H117.832V76.6744H114.39V73.2326ZM117.832 80.1163H121.274V83.5581H117.832V80.1163ZM117.832 83.5581H121.274V87H117.832V83.5581ZM121.274 83.5581H124.716V87H121.274V83.5581ZM121.274 80.1163H124.716V83.5581H121.274V80.1163ZM124.716 76.6744H128.158V80.1163H124.716V76.6744ZM124.716 73.2326H128.158V76.6744H124.716V73.2326ZM128.158 73.2326H131.6V76.6744H128.158V73.2326ZM128.158 76.6744H131.6V80.1163H128.158V76.6744ZM128.158 80.1163H131.6V83.5581H128.158V80.1163ZM128.158 83.5581H131.6V87H128.158V83.5581ZM124.716 83.5581H128.158V87H124.716V83.5581ZM124.716 80.1163H128.158V83.5581H124.716V80.1163ZM131.6 73.2326H135.042V76.6744H131.6V73.2326ZM135.042 73.2326H138.484V76.6744H135.042V73.2326ZM135.042 76.6744H138.484V80.1163H135.042V76.6744ZM131.6 76.6744H135.042V80.1163H131.6V76.6744ZM138.484 73.2326H141.925V76.6744H138.484V73.2326ZM141.925 73.2326H145.367V76.6744H141.925V73.2326ZM138.484 76.6744H141.925V80.1163H138.484V76.6744ZM138.484 69.7907H141.925V73.2326H138.484V69.7907ZM138.484 66.3488H141.925V69.7907H138.484V66.3488ZM141.925 66.3488H145.367V69.7907H141.925V66.3488ZM141.925 69.7907H145.367V73.2326H141.925V69.7907ZM145.367 66.3488H148.809V69.7907H145.367V66.3488ZM148.809 62.907H152.251V66.3488H148.809V62.907ZM148.809 59.4651H152.251V62.907H148.809V59.4651ZM148.809 56.0233H152.251V59.4651H148.809V56.0233ZM145.367 56.0233H148.809V59.4651H145.367V56.0233ZM141.925 56.0233H145.367V59.4651H141.925V56.0233ZM141.925 59.4651H145.367V62.907H141.925V59.4651ZM138.484 59.4651H141.925V62.907H138.484V59.4651ZM138.484 62.907H141.925V66.3488H138.484V62.907ZM141.925 62.907H145.367V66.3488H141.925V62.907ZM145.367 62.907H148.809V66.3488H145.367V62.907ZM145.367 59.4651H148.809V62.907H145.367V59.4651ZM138.484 56.0233H141.925V59.4651H138.484V56.0233ZM138.484 52.5814H141.925V56.0233H138.484V52.5814ZM141.925 52.5814H145.367V56.0233H141.925V52.5814ZM141.925 49.1395H145.367V52.5814H141.925V49.1395ZM145.367 49.1395H148.809V52.5814H145.367V49.1395ZM148.809 49.1395H152.251V52.5814H148.809V49.1395ZM148.809 52.5814H152.251V56.0233H148.809V52.5814ZM145.367 52.5814H148.809V56.0233H145.367V52.5814ZM138.484 49.1395H141.925V52.5814H138.484V49.1395ZM138.484 45.6977H141.925V49.1395H138.484V45.6977ZM141.925 45.6977H145.367V49.1395H141.925V45.6977ZM141.925 42.2558H145.367V45.6977H141.925V42.2558ZM145.367 42.2558H148.809V45.6977H145.367V42.2558ZM148.809 42.2558H152.251V45.6977H148.809V42.2558ZM148.809 45.6977H152.251V49.1395H148.809V45.6977ZM145.367 45.6977H148.809V49.1395H145.367V45.6977ZM138.484 42.2558H141.925V45.6977H138.484V42.2558ZM124.716 28.4884H128.158V31.9302H124.716V28.4884ZM124.716 31.9302H128.158V35.3721H124.716V31.9302ZM128.158 31.9302H131.6V35.3721H128.158V31.9302ZM128.158 28.4884H131.6V31.9302H128.158V28.4884ZM121.274 35.3721H124.716V38.814H121.274V35.3721ZM117.832 35.3721H121.274V38.814H117.832V35.3721ZM121.274 38.814H124.716V42.2558H121.274V38.814ZM117.832 38.814H121.274V42.2558H117.832V38.814ZM131.6 35.3721H135.042V38.814H131.6V35.3721ZM135.042 38.814H138.484V42.2558H135.042V38.814ZM135.042 35.3721H138.484V38.814H135.042V35.3721ZM131.6 28.4884H135.042V31.9302H131.6V28.4884ZM135.042 28.4884H138.484V31.9302H135.042V28.4884ZM135.042 31.9302H138.484V35.3721H135.042V31.9302ZM131.6 31.9302H135.042V35.3721H131.6V31.9302ZM138.484 28.4884H141.925V31.9302H138.484V28.4884ZM141.925 28.4884H145.367V31.9302H141.925V28.4884ZM141.925 31.9302H145.367V35.3721H141.925V31.9302ZM138.484 31.9302H141.925V35.3721H138.484V31.9302ZM152.251 38.814H155.693V42.2558H152.251V38.814ZM152.251 35.3721H155.693V38.814H152.251V35.3721ZM155.693 35.3721H159.135V38.814H155.693V35.3721ZM155.693 38.814H159.135V42.2558H155.693V38.814ZM148.809 35.3721H152.251V38.814H148.809V35.3721ZM145.367 35.3721H148.809V38.814H145.367V35.3721ZM141.925 35.3721H145.367V38.814H141.925V35.3721ZM138.484 35.3721H141.925V38.814H138.484V35.3721ZM141.925 38.814H145.367V42.2558H141.925V38.814ZM145.367 38.814H148.809V42.2558H145.367V38.814ZM148.809 38.814H152.251V42.2558H148.809V38.814ZM138.484 38.814H141.925V42.2558H138.484V38.814ZM114.39 80.1163H117.832V83.5581H114.39V80.1163ZM145.367 31.9302H148.809V35.3721H145.367V31.9302ZM114.39 38.814H117.832V42.2558H114.39V38.814ZM131.6 80.1163H135.042V83.5581H131.6V80.1163ZM145.367 69.7907H148.809V73.2326H145.367V69.7907ZM148.809 66.3488H152.251V69.7907H148.809V66.3488ZM135.042 80.1163H138.484V83.5581H135.042V80.1163ZM131.6 83.5581H135.042V87H131.6V83.5581ZM121.274 31.9302H124.716V35.3721H121.274V31.9302ZM176.394 83.5581H179.836V87H176.394V83.5581ZM179.836 83.5581H183.278V87H179.836V83.5581ZM172.953 80.1163H176.394V83.5581H172.953V80.1163ZM176.394 80.1163H179.836V83.5581H176.394V80.1163ZM179.836 80.1163H183.278V83.5581H179.836V80.1163ZM183.278 80.1163H186.72V83.5581H183.278V80.1163ZM169.511 76.6744H172.953V80.1163H169.511V76.6744ZM172.953 76.6744H176.394V80.1163H172.953V76.6744ZM172.953 73.2326H176.394V76.6744H172.953V73.2326ZM176.394 73.2326H179.836V76.6744H176.394V73.2326ZM176.394 76.6744H179.836V80.1163H176.394V76.6744ZM179.836 76.6744H183.278V80.1163H179.836V76.6744ZM183.278 76.6744H186.72V80.1163H183.278V76.6744ZM183.278 73.2326H186.72V76.6744H183.278V73.2326ZM186.72 76.6744H190.162V80.1163H186.72V76.6744ZM179.836 73.2326H183.278V76.6744H179.836V73.2326ZM176.394 69.7907H179.836V73.2326H176.394V69.7907ZM179.836 69.7907H183.278V73.2326H179.836V69.7907ZM183.278 69.7907H186.72V73.2326H183.278V69.7907ZM183.278 66.3488H186.72V69.7907H183.278V66.3488ZM179.836 66.3488H183.278V69.7907H179.836V66.3488ZM176.394 66.3488H179.836V69.7907H176.394V66.3488ZM176.394 62.907H179.836V66.3488H176.394V62.907ZM176.394 59.4651H179.836V62.907H176.394V59.4651ZM176.394 56.0233H179.836V59.4651H176.394V56.0233ZM176.394 52.5814H179.836V56.0233H176.394V52.5814ZM176.394 49.1395H179.836V52.5814H176.394V49.1395ZM179.836 49.1395H183.278V52.5814H179.836V49.1395ZM183.278 49.1395H186.72V52.5814H183.278V49.1395ZM183.278 52.5814H186.72V56.0233H183.278V52.5814ZM183.278 56.0233H186.72V59.4651H183.278V56.0233ZM183.278 59.4651H186.72V62.907H183.278V59.4651ZM179.836 59.4651H183.278V62.907H179.836V59.4651ZM179.836 62.907H183.278V66.3488H179.836V62.907ZM179.836 56.0233H183.278V59.4651H179.836V56.0233ZM179.836 52.5814H183.278V56.0233H179.836V52.5814ZM183.278 62.907H186.72V66.3488H183.278V62.907ZM183.278 45.6977H186.72V49.1395H183.278V45.6977ZM183.278 42.2558H186.72V45.6977H183.278V42.2558ZM183.278 38.814H186.72V42.2558H183.278V38.814ZM183.278 35.3721H186.72V38.814H183.278V35.3721ZM183.278 31.9302H186.72V35.3721H183.278V31.9302ZM176.394 31.9302H179.836V35.3721H176.394V31.9302ZM179.836 35.3721H183.278V38.814H179.836V35.3721ZM179.836 38.814H183.278V42.2558H179.836V38.814ZM179.836 42.2558H183.278V45.6977H179.836V42.2558ZM179.836 45.6977H183.278V49.1395H179.836V45.6977ZM176.394 45.6977H179.836V49.1395H176.394V45.6977ZM176.394 42.2558H179.836V45.6977H176.394V42.2558ZM176.394 38.814H179.836V42.2558H176.394V38.814ZM176.394 35.3721H179.836V38.814H176.394V35.3721ZM179.836 31.9302H183.278V35.3721H179.836V31.9302ZM172.953 69.7907H176.394V73.2326H172.953V69.7907ZM172.953 66.3488H176.394V69.7907H172.953V66.3488ZM172.953 62.907H176.394V66.3488H172.953V62.907ZM172.953 59.4651H176.394V62.907H172.953V59.4651ZM172.953 56.0233H176.394V59.4651H172.953V56.0233ZM172.953 52.5814H176.394V56.0233H172.953V52.5814ZM172.953 49.1395H176.394V52.5814H172.953V49.1395ZM172.953 45.6977H176.394V49.1395H172.953V45.6977ZM172.953 42.2558H176.394V45.6977H172.953V42.2558ZM172.953 38.814H176.394V42.2558H172.953V38.814ZM172.953 31.9302H176.394V35.3721H172.953V31.9302ZM172.953 35.3721H176.394V38.814H172.953V35.3721ZM176.394 28.4884H179.836V31.9302H176.394V28.4884ZM179.836 28.4884H183.278V31.9302H179.836V28.4884ZM169.511 35.3721H172.953V38.814H169.511V35.3721ZM203.929 83.5581H207.371V87H203.929V83.5581ZM207.371 83.5581H210.813V87H207.371V83.5581ZM200.487 80.1163H203.929V83.5581H200.487V80.1163ZM203.929 80.1163H207.371V83.5581H203.929V80.1163ZM207.371 80.1163H210.813V83.5581H207.371V80.1163ZM210.813 80.1163H214.255V83.5581H210.813V80.1163ZM197.046 76.6744H200.487V80.1163H197.046V76.6744ZM200.487 76.6744H203.929V80.1163H200.487V76.6744ZM200.487 73.2326H203.929V76.6744H200.487V73.2326ZM203.929 73.2326H207.371V76.6744H203.929V73.2326ZM203.929 76.6744H207.371V80.1163H203.929V76.6744ZM207.371 76.6744H210.813V80.1163H207.371V76.6744ZM210.813 76.6744H214.255V80.1163H210.813V76.6744ZM210.813 73.2326H214.255V76.6744H210.813V73.2326ZM214.255 76.6744H217.697V80.1163H214.255V76.6744ZM207.371 73.2326H210.813V76.6744H207.371V73.2326ZM203.929 69.7907H207.371V73.2326H203.929V69.7907ZM207.371 69.7907H210.813V73.2326H207.371V69.7907ZM210.813 69.7907H214.255V73.2326H210.813V69.7907ZM210.813 66.3488H214.255V69.7907H210.813V66.3488ZM207.371 66.3488H210.813V69.7907H207.371V66.3488ZM203.929 66.3488H207.371V69.7907H203.929V66.3488ZM203.929 62.907H207.371V66.3488H203.929V62.907ZM203.929 59.4651H207.371V62.907H203.929V59.4651ZM203.929 56.0233H207.371V59.4651H203.929V56.0233ZM203.929 52.5814H207.371V56.0233H203.929V52.5814ZM203.929 49.1395H207.371V52.5814H203.929V49.1395ZM207.371 49.1395H210.813V52.5814H207.371V49.1395ZM210.813 49.1395H214.255V52.5814H210.813V49.1395ZM210.813 52.5814H214.255V56.0233H210.813V52.5814ZM210.813 56.0233H214.255V59.4651H210.813V56.0233ZM210.813 59.4651H214.255V62.907H210.813V59.4651ZM207.371 59.4651H210.813V62.907H207.371V59.4651ZM207.371 62.907H210.813V66.3488H207.371V62.907ZM207.371 56.0233H210.813V59.4651H207.371V56.0233ZM207.371 52.5814H210.813V56.0233H207.371V52.5814ZM210.813 62.907H214.255V66.3488H210.813V62.907ZM210.813 45.6977H214.255V49.1395H210.813V45.6977ZM210.813 42.2558H214.255V45.6977H210.813V42.2558ZM210.813 38.814H214.255V42.2558H210.813V38.814ZM210.813 35.3721H214.255V38.814H210.813V35.3721ZM210.813 31.9302H214.255V35.3721H210.813V31.9302ZM203.929 31.9302H207.371V35.3721H203.929V31.9302ZM207.371 35.3721H210.813V38.814H207.371V35.3721ZM207.371 38.814H210.813V42.2558H207.371V38.814ZM207.371 42.2558H210.813V45.6977H207.371V42.2558ZM207.371 45.6977H210.813V49.1395H207.371V45.6977ZM203.929 45.6977H207.371V49.1395H203.929V45.6977ZM203.929 42.2558H207.371V45.6977H203.929V42.2558ZM203.929 38.814H207.371V42.2558H203.929V38.814ZM203.929 35.3721H207.371V38.814H203.929V35.3721ZM207.371 31.9302H210.813V35.3721H207.371V31.9302ZM200.487 69.7907H203.929V73.2326H200.487V69.7907ZM200.487 66.3488H203.929V69.7907H200.487V66.3488ZM200.487 62.907H203.929V66.3488H200.487V62.907ZM200.487 59.4651H203.929V62.907H200.487V59.4651ZM200.487 56.0233H203.929V59.4651H200.487V56.0233ZM200.487 52.5814H203.929V56.0233H200.487V52.5814ZM200.487 49.1395H203.929V52.5814H200.487V49.1395ZM200.487 45.6977H203.929V49.1395H200.487V45.6977ZM200.487 42.2558H203.929V45.6977H200.487V42.2558ZM200.487 38.814H203.929V42.2558H200.487V38.814ZM200.487 31.9302H203.929V35.3721H200.487V31.9302ZM200.487 35.3721H203.929V38.814H200.487V35.3721ZM217.697 73.2326H221.139V76.6744H217.697V73.2326ZM203.929 28.4884H207.371V31.9302H203.929V28.4884ZM207.371 28.4884H210.813V31.9302H207.371V28.4884ZM197.046 35.3721H200.487V38.814H197.046V35.3721ZM214.255 35.3721H217.697V38.814H214.255V35.3721ZM166.069 38.814H169.511V42.2558H166.069V38.814ZM169.511 38.814H172.953V42.2558H169.511V38.814ZM190.162 35.3721H193.604V38.814H190.162V35.3721ZM193.604 35.3721H197.046V38.814H193.604V35.3721ZM193.604 31.9302H197.046V35.3721H193.604V31.9302ZM197.046 31.9302H200.487V35.3721H197.046V31.9302ZM197.046 28.4884H200.487V31.9302H197.046V28.4884ZM200.487 28.4884H203.929V31.9302H200.487V28.4884ZM186.72 35.3721H190.162V38.814H186.72V35.3721ZM197.046 38.814H200.487V42.2558H197.046V38.814ZM166.069 73.2326H169.511V76.6744H166.069V73.2326ZM169.511 73.2326H172.953V76.6744H169.511V73.2326ZM193.604 73.2326H197.046V76.6744H193.604V73.2326ZM197.046 73.2326H200.487V76.6744H197.046V73.2326ZM214.255 73.2326H217.697V76.6744H214.255V73.2326ZM166.069 35.3721H169.511V38.814H166.069V35.3721ZM217.697 38.814H221.139V42.2558H217.697V38.814ZM214.255 38.814H217.697V42.2558H214.255V38.814ZM186.72 73.2326H190.162V76.6744H186.72V73.2326ZM217.697 35.3721H221.139V38.814H217.697V35.3721ZM193.604 38.814H197.046V42.2558H193.604V38.814ZM190.162 38.814H193.604V42.2558H190.162V38.814ZM186.72 38.814H190.162V42.2558H186.72V38.814ZM193.604 76.6744H197.046V80.1163H193.604V76.6744ZM166.069 76.6744H169.511V80.1163H166.069V76.6744ZM172.953 83.5581H176.394V87H172.953V83.5581ZM200.487 83.5581H203.929V87H200.487V83.5581ZM169.511 31.9302H172.953V35.3721H169.511V31.9302ZM172.953 28.4884H176.394V31.9302H172.953V28.4884ZM241.84 80.1163H245.282V83.5581H241.84V80.1163ZM245.282 80.1163H248.724V83.5581H245.282V80.1163ZM231.515 76.6744H234.956V80.1163H231.515V76.6744ZM234.956 76.6744H238.398V80.1163H234.956V76.6744ZM234.956 73.2326H238.398V76.6744H234.956V73.2326ZM238.398 73.2326H241.84V76.6744H238.398V73.2326ZM238.398 76.6744H241.84V80.1163H238.398V76.6744ZM241.84 76.6744H245.282V80.1163H241.84V76.6744ZM245.282 76.6744H248.724V80.1163H245.282V76.6744ZM245.282 73.2326H248.724V76.6744H245.282V73.2326ZM241.84 73.2326H245.282V76.6744H241.84V73.2326ZM238.398 69.7907H241.84V73.2326H238.398V69.7907ZM241.84 69.7907H245.282V73.2326H241.84V69.7907ZM245.282 69.7907H248.724V73.2326H245.282V69.7907ZM245.282 66.3488H248.724V69.7907H245.282V66.3488ZM241.84 66.3488H245.282V69.7907H241.84V66.3488ZM238.398 66.3488H241.84V69.7907H238.398V66.3488ZM238.398 62.907H241.84V66.3488H238.398V62.907ZM238.398 59.4651H241.84V62.907H238.398V59.4651ZM238.398 56.0233H241.84V59.4651H238.398V56.0233ZM238.398 52.5814H241.84V56.0233H238.398V52.5814ZM238.398 49.1395H241.84V52.5814H238.398V49.1395ZM241.84 49.1395H245.282V52.5814H241.84V49.1395ZM245.282 49.1395H248.724V52.5814H245.282V49.1395ZM245.282 52.5814H248.724V56.0233H245.282V52.5814ZM245.282 56.0233H248.724V59.4651H245.282V56.0233ZM245.282 59.4651H248.724V62.907H245.282V59.4651ZM241.84 59.4651H245.282V62.907H241.84V59.4651ZM241.84 62.907H245.282V66.3488H241.84V62.907ZM241.84 56.0233H245.282V59.4651H241.84V56.0233ZM241.84 52.5814H245.282V56.0233H241.84V52.5814ZM245.282 62.907H248.724V66.3488H245.282V62.907ZM245.282 45.6977H248.724V49.1395H245.282V45.6977ZM245.282 42.2558H248.724V45.6977H245.282V42.2558ZM245.282 38.814H248.724V42.2558H245.282V38.814ZM245.282 35.3721H248.724V38.814H245.282V35.3721ZM245.282 31.9302H248.724V35.3721H245.282V31.9302ZM238.398 31.9302H241.84V35.3721H238.398V31.9302ZM241.84 35.3721H245.282V38.814H241.84V35.3721ZM241.84 38.814H245.282V42.2558H241.84V38.814ZM241.84 42.2558H245.282V45.6977H241.84V42.2558ZM241.84 45.6977H245.282V49.1395H241.84V45.6977ZM238.398 45.6977H241.84V49.1395H238.398V45.6977ZM238.398 42.2558H241.84V45.6977H238.398V42.2558ZM238.398 38.814H241.84V42.2558H238.398V38.814ZM238.398 35.3721H241.84V38.814H238.398V35.3721ZM241.84 31.9302H245.282V35.3721H241.84V31.9302ZM234.956 69.7907H238.398V73.2326H234.956V69.7907ZM234.956 66.3488H238.398V69.7907H234.956V66.3488ZM234.956 62.907H238.398V66.3488H234.956V62.907ZM234.956 59.4651H238.398V62.907H234.956V59.4651ZM234.956 56.0233H238.398V59.4651H234.956V56.0233ZM234.956 52.5814H238.398V56.0233H234.956V52.5814ZM234.956 49.1395H238.398V52.5814H234.956V49.1395ZM234.956 45.6977H238.398V49.1395H234.956V45.6977ZM234.956 42.2558H238.398V45.6977H234.956V42.2558ZM234.956 38.814H238.398V42.2558H234.956V38.814ZM234.956 31.9302H238.398V35.3721H234.956V31.9302ZM234.956 35.3721H238.398V38.814H234.956V35.3721ZM228.073 73.2326H231.515V76.6744H228.073V73.2326ZM231.515 73.2326H234.956V76.6744H231.515V73.2326ZM228.073 76.6744H231.515V80.1163H228.073V76.6744ZM228.073 28.4884H231.515V31.9302H228.073V28.4884ZM231.515 28.4884H234.956V31.9302H231.515V28.4884ZM231.515 31.9302H234.956V35.3721H231.515V31.9302ZM228.073 31.9302H231.515V35.3721H228.073V31.9302ZM248.724 31.9302H252.166V35.3721H248.724V31.9302ZM248.724 28.4884H252.166V31.9302H248.724V28.4884ZM252.166 28.4884H255.608V31.9302H252.166V28.4884ZM252.166 31.9302H255.608V35.3721H252.166V31.9302ZM234.956 28.4884H238.398V31.9302H234.956V28.4884ZM238.398 28.4884H241.84V31.9302H238.398V28.4884ZM241.84 28.4884H245.282V31.9302H241.84V28.4884ZM245.282 28.4884H248.724V31.9302H245.282V28.4884ZM245.282 25.0465H248.724V28.4884H245.282V25.0465ZM245.282 21.6047H248.724V25.0465H245.282V21.6047ZM245.282 18.1628H248.724V21.6047H245.282V18.1628ZM241.84 18.1628H245.282V21.6047H241.84V18.1628ZM238.398 18.1628H241.84V21.6047H238.398V18.1628ZM238.398 21.6047H241.84V25.0465H238.398V21.6047ZM238.398 25.0465H241.84V28.4884H238.398V25.0465ZM241.84 25.0465H245.282V28.4884H241.84V25.0465ZM241.84 21.6047H245.282V25.0465H241.84V21.6047ZM234.956 25.0465H238.398V28.4884H234.956V25.0465ZM234.956 21.6047H238.398V25.0465H234.956V21.6047ZM234.956 18.1628H238.398V21.6047H234.956V18.1628ZM245.282 11.2791H248.724V14.7209H245.282V11.2791ZM241.84 11.2791H245.282V14.7209H241.84V11.2791ZM241.84 14.7209H245.282V18.1628H241.84V14.7209ZM245.282 14.7209H248.724V18.1628H245.282V14.7209ZM245.282 7.83721H248.724V11.2791H245.282V7.83721ZM238.398 14.7209H241.84V18.1628H238.398V14.7209ZM255.608 28.4884H259.049V31.9302H255.608V28.4884ZM255.608 31.9302H259.049V35.3721H255.608V31.9302ZM255.608 73.2326H259.049V76.6744H255.608V73.2326ZM255.608 76.6744H259.049V80.1163H255.608V76.6744ZM252.166 76.6744H255.608V80.1163H252.166V76.6744ZM248.724 80.1163H252.166V83.5581H248.724V80.1163ZM245.282 83.5581H248.724V87H245.282V83.5581ZM241.84 83.5581H245.282V87H241.84V83.5581ZM259.049 31.9302H262.491V35.3721H259.049V31.9302ZM259.049 28.4884H262.491V31.9302H259.049V28.4884ZM248.724 73.2326H252.166V76.6744H248.724V73.2326ZM252.166 73.2326H255.608V76.6744H252.166V73.2326ZM259.049 73.2326H262.491V76.6744H259.049V73.2326ZM248.724 76.6744H252.166V80.1163H248.724V76.6744ZM248.724 83.5581H252.166V87H248.724V83.5581ZM252.166 80.1163H255.608V83.5581H252.166V80.1163ZM279.734 80.1163H283.176V83.5581H279.734V80.1163ZM279.734 76.6744H283.176V80.1163H279.734V76.6744ZM279.734 73.2326H283.176V76.6744H279.734V73.2326ZM279.734 69.7907H283.176V73.2326H279.734V69.7907ZM279.734 66.3488H283.176V69.7907H279.734V66.3488ZM279.734 62.907H283.176V66.3488H279.734V62.907ZM279.734 59.4651H283.176V62.907H279.734V59.4651ZM279.734 56.0233H283.176V59.4651H279.734V56.0233ZM279.734 52.5814H283.176V56.0233H279.734V52.5814ZM279.734 49.1395H283.176V52.5814H279.734V49.1395ZM283.176 49.1395H286.618V52.5814H283.176V49.1395ZM286.618 49.1395H290.06V52.5814H286.618V49.1395ZM276.292 49.1395H279.734V52.5814H276.292V49.1395ZM276.292 52.5814H279.734V56.0233H276.292V52.5814ZM276.292 56.0233H279.734V59.4651H276.292V56.0233ZM276.292 59.4651H279.734V62.907H276.292V59.4651ZM276.292 62.907H279.734V66.3488H276.292V62.907ZM276.292 66.3488H279.734V69.7907H276.292V66.3488ZM276.292 69.7907H279.734V73.2326H276.292V69.7907ZM276.292 73.2326H279.734V76.6744H276.292V73.2326ZM276.292 76.6744H279.734V80.1163H276.292V76.6744ZM283.176 76.6744H286.618V80.1163H283.176V76.6744ZM286.618 76.6744H290.06V80.1163H286.618V76.6744ZM286.618 73.2326H290.06V76.6744H286.618V73.2326ZM286.618 69.7907H290.06V73.2326H286.618V69.7907ZM286.618 66.3488H290.06V69.7907H286.618V66.3488ZM286.618 62.907H290.06V66.3488H286.618V62.907ZM286.618 59.4651H290.06V62.907H286.618V59.4651ZM286.618 56.0233H290.06V59.4651H286.618V56.0233ZM286.618 52.5814H290.06V56.0233H286.618V52.5814ZM283.176 52.5814H286.618V56.0233H283.176V52.5814ZM283.176 56.0233H286.618V59.4651H283.176V56.0233ZM283.176 59.4651H286.618V62.907H283.176V59.4651ZM283.176 62.907H286.618V66.3488H283.176V62.907ZM283.176 66.3488H286.618V69.7907H283.176V66.3488ZM283.176 69.7907H286.618V73.2326H283.176V69.7907ZM283.176 73.2326H286.618V76.6744H283.176V73.2326ZM283.176 80.1163H286.618V83.5581H283.176V80.1163ZM286.618 80.1163H290.06V83.5581H286.618V80.1163ZM286.618 83.5581H290.06V87H286.618V83.5581ZM283.176 83.5581H286.618V87H283.176V83.5581ZM290.06 76.6744H293.502V80.1163H290.06V76.6744ZM293.502 76.6744H296.944V80.1163H293.502V76.6744ZM296.944 76.6744H300.385V80.1163H296.944V76.6744ZM286.618 45.6977H290.06V49.1395H286.618V45.6977ZM286.618 42.2558H290.06V45.6977H286.618V42.2558ZM286.618 38.814H290.06V42.2558H286.618V38.814ZM286.618 35.3721H290.06V38.814H286.618V35.3721ZM276.292 42.2558H279.734V45.6977H276.292V42.2558ZM276.292 45.6977H279.734V49.1395H276.292V45.6977ZM279.734 45.6977H283.176V49.1395H279.734V45.6977ZM279.734 42.2558H283.176V45.6977H279.734V42.2558ZM283.176 42.2558H286.618V45.6977H283.176V42.2558ZM283.176 38.814H286.618V42.2558H283.176V38.814ZM283.176 35.3721H286.618V38.814H283.176V35.3721ZM283.176 45.6977H286.618V49.1395H283.176V45.6977ZM293.502 28.4884H296.944V31.9302H293.502V28.4884ZM293.502 31.9302H296.944V35.3721H293.502V31.9302ZM290.06 31.9302H293.502V35.3721H290.06V31.9302ZM296.944 28.4884H300.385V31.9302H296.944V28.4884ZM300.385 28.4884H303.827V31.9302H300.385V28.4884ZM300.385 31.9302H303.827V35.3721H300.385V31.9302ZM296.944 31.9302H300.385V35.3721H296.944V31.9302ZM300.385 35.3721H303.827V38.814H300.385V35.3721ZM307.269 35.3721H310.711V38.814H307.269V35.3721ZM307.269 38.814H310.711V42.2558H307.269V38.814ZM303.827 38.814H307.269V42.2558H303.827V38.814ZM303.827 35.3721H307.269V38.814H303.827V35.3721ZM279.734 38.814H283.176V42.2558H279.734V38.814ZM272.851 76.6744H276.292V80.1163H272.851V76.6744ZM269.409 76.6744H272.851V80.1163H269.409V76.6744ZM269.409 73.2326H272.851V76.6744H269.409V73.2326ZM272.851 73.2326H276.292V76.6744H272.851V73.2326ZM290.06 73.2326H293.502V76.6744H290.06V73.2326ZM293.502 73.2326H296.944V76.6744H293.502V73.2326ZM296.944 73.2326H300.385V76.6744H296.944V73.2326ZM300.385 73.2326H303.827V76.6744H300.385V73.2326ZM290.06 83.5581H293.502V87H290.06V83.5581ZM290.06 80.1163H293.502V83.5581H290.06V80.1163ZM293.502 80.1163H296.944V83.5581H293.502V80.1163ZM296.944 35.3721H300.385V38.814H296.944V35.3721ZM300.385 38.814H303.827V42.2558H300.385V38.814ZM307.269 42.2558H310.711V45.6977H307.269V42.2558ZM303.827 42.2558H307.269V45.6977H303.827V42.2558ZM307.269 45.6977H310.711V49.1395H307.269V45.6977ZM303.827 28.4884H307.269V31.9302H303.827V28.4884ZM307.269 31.9302H310.711V35.3721H307.269V31.9302ZM303.827 31.9302H307.269V35.3721H303.827V31.9302ZM310.711 35.3721H314.153V38.814H310.711V35.3721ZM310.711 38.814H314.153V42.2558H310.711V38.814ZM310.711 42.2558H314.153V45.6977H310.711V42.2558ZM300.385 49.1395H303.827V52.5814H300.385V49.1395ZM296.944 49.1395H300.385V52.5814H296.944V49.1395ZM293.502 49.1395H296.944V52.5814H293.502V49.1395ZM290.06 49.1395H293.502V52.5814H290.06V49.1395ZM290.06 52.5814H293.502V56.0233H290.06V52.5814ZM293.502 52.5814H296.944V56.0233H293.502V52.5814ZM296.944 52.5814H300.385V56.0233H296.944V52.5814ZM300.385 52.5814H303.827V56.0233H300.385V52.5814ZM303.827 49.1395H307.269V52.5814H303.827V49.1395ZM303.827 52.5814H307.269V56.0233H303.827V52.5814ZM310.711 45.6977H314.153V49.1395H310.711V45.6977ZM290.06 35.3721H293.502V38.814H290.06V35.3721ZM286.618 31.9302H290.06V35.3721H286.618V31.9302ZM290.06 28.4884H293.502V31.9302H290.06V28.4884ZM331.332 83.5581H334.774V87H331.332V83.5581ZM334.774 83.5581H338.216V87H334.774V83.5581ZM327.89 80.1163H331.332V83.5581H327.89V80.1163ZM331.332 80.1163H334.774V83.5581H331.332V80.1163ZM334.774 80.1163H338.216V83.5581H334.774V80.1163ZM338.216 80.1163H341.657V83.5581H338.216V80.1163ZM324.448 76.6744H327.89V80.1163H324.448V76.6744ZM327.89 76.6744H331.332V80.1163H327.89V76.6744ZM327.89 73.2326H331.332V76.6744H327.89V73.2326ZM331.332 73.2326H334.774V76.6744H331.332V73.2326ZM331.332 76.6744H334.774V80.1163H331.332V76.6744ZM334.774 76.6744H338.216V80.1163H334.774V76.6744ZM338.216 76.6744H341.657V80.1163H338.216V76.6744ZM338.216 73.2326H341.657V76.6744H338.216V73.2326ZM341.657 76.6744H345.099V80.1163H341.657V76.6744ZM334.774 73.2326H338.216V76.6744H334.774V73.2326ZM331.332 69.7907H334.774V73.2326H331.332V69.7907ZM334.774 69.7907H338.216V73.2326H334.774V69.7907ZM338.216 69.7907H341.657V73.2326H338.216V69.7907ZM338.216 66.3488H341.657V69.7907H338.216V66.3488ZM334.774 66.3488H338.216V69.7907H334.774V66.3488ZM331.332 66.3488H334.774V69.7907H331.332V66.3488ZM331.332 62.907H334.774V66.3488H331.332V62.907ZM331.332 59.4651H334.774V62.907H331.332V59.4651ZM331.332 56.0233H334.774V59.4651H331.332V56.0233ZM331.332 52.5814H334.774V56.0233H331.332V52.5814ZM331.332 49.1395H334.774V52.5814H331.332V49.1395ZM334.774 49.1395H338.216V52.5814H334.774V49.1395ZM338.216 49.1395H341.657V52.5814H338.216V49.1395ZM338.216 52.5814H341.657V56.0233H338.216V52.5814ZM338.216 56.0233H341.657V59.4651H338.216V56.0233ZM338.216 59.4651H341.657V62.907H338.216V59.4651ZM334.774 59.4651H338.216V62.907H334.774V59.4651ZM334.774 62.907H338.216V66.3488H334.774V62.907ZM334.774 56.0233H338.216V59.4651H334.774V56.0233ZM334.774 52.5814H338.216V56.0233H334.774V52.5814ZM338.216 62.907H341.657V66.3488H338.216V62.907ZM338.216 45.6977H341.657V49.1395H338.216V45.6977ZM338.216 42.2558H341.657V45.6977H338.216V42.2558ZM338.216 38.814H341.657V42.2558H338.216V38.814ZM338.216 35.3721H341.657V38.814H338.216V35.3721ZM338.216 31.9302H341.657V35.3721H338.216V31.9302ZM331.332 31.9302H334.774V35.3721H331.332V31.9302ZM334.774 35.3721H338.216V38.814H334.774V35.3721ZM334.774 38.814H338.216V42.2558H334.774V38.814ZM334.774 42.2558H338.216V45.6977H334.774V42.2558ZM334.774 45.6977H338.216V49.1395H334.774V45.6977ZM331.332 45.6977H334.774V49.1395H331.332V45.6977ZM331.332 42.2558H334.774V45.6977H331.332V42.2558ZM331.332 38.814H334.774V42.2558H331.332V38.814ZM331.332 35.3721H334.774V38.814H331.332V35.3721ZM334.774 31.9302H338.216V35.3721H334.774V31.9302ZM327.89 69.7907H331.332V73.2326H327.89V69.7907ZM327.89 66.3488H331.332V69.7907H327.89V66.3488ZM327.89 62.907H331.332V66.3488H327.89V62.907ZM327.89 59.4651H331.332V62.907H327.89V59.4651ZM327.89 56.0233H331.332V59.4651H327.89V56.0233ZM327.89 52.5814H331.332V56.0233H327.89V52.5814ZM327.89 49.1395H331.332V52.5814H327.89V49.1395ZM327.89 45.6977H331.332V49.1395H327.89V45.6977ZM327.89 42.2558H331.332V45.6977H327.89V42.2558ZM327.89 38.814H331.332V42.2558H327.89V38.814ZM327.89 31.9302H331.332V35.3721H327.89V31.9302ZM327.89 35.3721H331.332V38.814H327.89V35.3721ZM331.332 28.4884H334.774V31.9302H331.332V28.4884ZM334.774 28.4884H338.216V31.9302H334.774V28.4884ZM324.448 35.3721H327.89V38.814H324.448V35.3721ZM358.867 83.5581H362.309V87H358.867V83.5581ZM362.309 83.5581H365.751V87H362.309V83.5581ZM355.425 80.1163H358.867V83.5581H355.425V80.1163ZM358.867 80.1163H362.309V83.5581H358.867V80.1163ZM362.309 80.1163H365.751V83.5581H362.309V80.1163ZM365.751 80.1163H369.192V83.5581H365.751V80.1163ZM351.983 76.6744H355.425V80.1163H351.983V76.6744ZM355.425 76.6744H358.867V80.1163H355.425V76.6744ZM355.425 73.2326H358.867V76.6744H355.425V73.2326ZM358.867 73.2326H362.309V76.6744H358.867V73.2326ZM358.867 76.6744H362.309V80.1163H358.867V76.6744ZM362.309 76.6744H365.751V80.1163H362.309V76.6744ZM365.751 76.6744H369.192V80.1163H365.751V76.6744ZM365.751 73.2326H369.192V76.6744H365.751V73.2326ZM369.192 76.6744H372.634V80.1163H369.192V76.6744ZM362.309 73.2326H365.751V76.6744H362.309V73.2326ZM358.867 69.7907H362.309V73.2326H358.867V69.7907ZM362.309 69.7907H365.751V73.2326H362.309V69.7907ZM365.751 69.7907H369.192V73.2326H365.751V69.7907ZM365.751 66.3488H369.192V69.7907H365.751V66.3488ZM362.309 66.3488H365.751V69.7907H362.309V66.3488ZM358.867 66.3488H362.309V69.7907H358.867V66.3488ZM358.867 62.907H362.309V66.3488H358.867V62.907ZM358.867 59.4651H362.309V62.907H358.867V59.4651ZM358.867 56.0233H362.309V59.4651H358.867V56.0233ZM358.867 52.5814H362.309V56.0233H358.867V52.5814ZM358.867 49.1395H362.309V52.5814H358.867V49.1395ZM362.309 49.1395H365.751V52.5814H362.309V49.1395ZM365.751 49.1395H369.192V52.5814H365.751V49.1395ZM365.751 52.5814H369.192V56.0233H365.751V52.5814ZM365.751 56.0233H369.192V59.4651H365.751V56.0233ZM365.751 59.4651H369.192V62.907H365.751V59.4651ZM362.309 59.4651H365.751V62.907H362.309V59.4651ZM362.309 62.907H365.751V66.3488H362.309V62.907ZM362.309 56.0233H365.751V59.4651H362.309V56.0233ZM362.309 52.5814H365.751V56.0233H362.309V52.5814ZM365.751 62.907H369.192V66.3488H365.751V62.907ZM365.751 45.6977H369.192V49.1395H365.751V45.6977ZM365.751 42.2558H369.192V45.6977H365.751V42.2558ZM365.751 38.814H369.192V42.2558H365.751V38.814ZM365.751 35.3721H369.192V38.814H365.751V35.3721ZM365.751 31.9302H369.192V35.3721H365.751V31.9302ZM358.867 31.9302H362.309V35.3721H358.867V31.9302ZM362.309 35.3721H365.751V38.814H362.309V35.3721ZM362.309 38.814H365.751V42.2558H362.309V38.814ZM362.309 42.2558H365.751V45.6977H362.309V42.2558ZM362.309 45.6977H365.751V49.1395H362.309V45.6977ZM358.867 45.6977H362.309V49.1395H358.867V45.6977ZM358.867 42.2558H362.309V45.6977H358.867V42.2558ZM358.867 38.814H362.309V42.2558H358.867V38.814ZM358.867 35.3721H362.309V38.814H358.867V35.3721ZM362.309 31.9302H365.751V35.3721H362.309V31.9302ZM355.425 69.7907H358.867V73.2326H355.425V69.7907ZM355.425 66.3488H358.867V69.7907H355.425V66.3488ZM355.425 62.907H358.867V66.3488H355.425V62.907ZM355.425 59.4651H358.867V62.907H355.425V59.4651ZM355.425 56.0233H358.867V59.4651H355.425V56.0233ZM355.425 52.5814H358.867V56.0233H355.425V52.5814ZM355.425 49.1395H358.867V52.5814H355.425V49.1395ZM355.425 45.6977H358.867V49.1395H355.425V45.6977ZM355.425 42.2558H358.867V45.6977H355.425V42.2558ZM355.425 38.814H358.867V42.2558H355.425V38.814ZM355.425 31.9302H358.867V35.3721H355.425V31.9302ZM355.425 35.3721H358.867V38.814H355.425V35.3721ZM372.634 73.2326H376.076V76.6744H372.634V73.2326ZM358.867 28.4884H362.309V31.9302H358.867V28.4884ZM362.309 28.4884H365.751V31.9302H362.309V28.4884ZM351.983 35.3721H355.425V38.814H351.983V35.3721ZM369.192 35.3721H372.634V38.814H369.192V35.3721ZM321.006 38.814H324.448V42.2558H321.006V38.814ZM324.448 38.814H327.89V42.2558H324.448V38.814ZM345.099 35.3721H348.541V38.814H345.099V35.3721ZM348.541 35.3721H351.983V38.814H348.541V35.3721ZM348.541 31.9302H351.983V35.3721H348.541V31.9302ZM351.983 31.9302H355.425V35.3721H351.983V31.9302ZM351.983 28.4884H355.425V31.9302H351.983V28.4884ZM355.425 28.4884H358.867V31.9302H355.425V28.4884ZM341.657 35.3721H345.099V38.814H341.657V35.3721ZM351.983 38.814H355.425V42.2558H351.983V38.814ZM321.006 73.2326H324.448V76.6744H321.006V73.2326ZM324.448 73.2326H327.89V76.6744H324.448V73.2326ZM348.541 73.2326H351.983V76.6744H348.541V73.2326ZM351.983 73.2326H355.425V76.6744H351.983V73.2326ZM369.192 73.2326H372.634V76.6744H369.192V73.2326ZM321.006 35.3721H324.448V38.814H321.006V35.3721ZM372.634 38.814H376.076V42.2558H372.634V38.814ZM369.192 38.814H372.634V42.2558H369.192V38.814ZM341.657 73.2326H345.099V76.6744H341.657V73.2326ZM372.634 35.3721H376.076V38.814H372.634V35.3721ZM348.541 38.814H351.983V42.2558H348.541V38.814ZM345.099 38.814H348.541V42.2558H345.099V38.814ZM341.657 38.814H345.099V42.2558H341.657V38.814ZM348.541 76.6744H351.983V80.1163H348.541V76.6744ZM321.006 76.6744H324.448V80.1163H321.006V76.6744ZM327.89 83.5581H331.332V87H327.89V83.5581ZM355.425 83.5581H358.867V87H355.425V83.5581ZM324.448 31.9302H327.89V35.3721H324.448V31.9302ZM327.89 28.4884H331.332V31.9302H327.89V28.4884ZM393.336 42.2558H396.778V45.6977H393.336V42.2558ZM396.778 42.2558H400.22V45.6977H396.778V42.2558ZM396.778 45.6977H400.22V49.1395H396.778V45.6977ZM400.22 42.2558H403.661V45.6977H400.22V42.2558ZM389.894 42.2558H393.336V45.6977H389.894V42.2558ZM389.894 45.6977H393.336V49.1395H389.894V45.6977ZM389.894 52.5814H393.336V56.0233H389.894V52.5814ZM389.894 56.0233H393.336V59.4651H389.894V56.0233ZM389.894 59.4651H393.336V62.907H389.894V59.4651ZM389.894 62.907H393.336V66.3488H389.894V62.907ZM389.894 66.3488H393.336V69.7907H389.894V66.3488ZM389.894 69.7907H393.336V73.2326H389.894V69.7907ZM393.336 69.7907H396.778V73.2326H393.336V69.7907ZM396.778 69.7907H400.22V73.2326H396.778V69.7907ZM396.778 66.3488H400.22V69.7907H396.778V66.3488ZM400.22 66.3488H403.661V69.7907H400.22V66.3488ZM400.22 62.907H403.661V66.3488H400.22V62.907ZM400.22 56.0233H403.661V59.4651H400.22V56.0233ZM400.22 52.5814H403.661V56.0233H400.22V52.5814ZM400.22 49.1395H403.661V52.5814H400.22V49.1395ZM400.22 45.6977H403.661V49.1395H400.22V45.6977ZM396.778 49.1395H400.22V52.5814H396.778V49.1395ZM396.778 52.5814H400.22V56.0233H396.778V52.5814ZM396.778 56.0233H400.22V59.4651H396.778V56.0233ZM396.778 59.4651H400.22V62.907H396.778V59.4651ZM396.778 62.907H400.22V66.3488H396.778V62.907ZM400.22 59.4651H403.661V62.907H400.22V59.4651ZM393.336 59.4651H396.778V62.907H393.336V59.4651ZM393.336 56.0233H396.778V59.4651H393.336V56.0233ZM393.336 52.5814H396.778V56.0233H393.336V52.5814ZM393.336 49.1395H396.778V52.5814H393.336V49.1395ZM393.336 45.6977H396.778V49.1395H393.336V45.6977ZM389.894 49.1395H393.336V52.5814H389.894V49.1395ZM393.336 62.907H396.778V66.3488H393.336V62.907ZM393.336 66.3488H396.778V69.7907H393.336V66.3488ZM386.452 76.6744H389.894V80.1163H386.452V76.6744ZM383.01 76.6744H386.452V80.1163H383.01V76.6744ZM383.01 73.2326H386.452V76.6744H383.01V73.2326ZM386.452 73.2326H389.894V76.6744H386.452V73.2326ZM389.894 73.2326H393.336V76.6744H389.894V73.2326ZM389.894 76.6744H393.336V80.1163H389.894V76.6744ZM393.336 76.6744H396.778V80.1163H393.336V76.6744ZM396.778 76.6744H400.22V80.1163H396.778V76.6744ZM400.22 76.6744H403.661V80.1163H400.22V76.6744ZM400.22 73.2326H403.661V76.6744H400.22V73.2326ZM400.22 69.7907H403.661V73.2326H400.22V69.7907ZM396.778 73.2326H400.22V76.6744H396.778V73.2326ZM393.336 73.2326H396.778V76.6744H393.336V73.2326ZM396.778 80.1163H400.22V83.5581H396.778V80.1163ZM396.778 83.5581H400.22V87H396.778V83.5581ZM400.22 83.5581H403.661V87H400.22V83.5581ZM400.22 80.1163H403.661V83.5581H400.22V80.1163ZM403.661 76.6744H407.103V80.1163H403.661V76.6744ZM403.661 73.2326H407.103V76.6744H403.661V73.2326ZM407.103 73.2326H410.545V76.6744H407.103V73.2326ZM407.103 76.6744H410.545V80.1163H407.103V76.6744ZM407.103 80.1163H410.545V83.5581H407.103V80.1163ZM407.103 83.5581H410.545V87H407.103V83.5581ZM403.661 83.5581H407.103V87H403.661V83.5581ZM403.661 80.1163H407.103V83.5581H403.661V80.1163ZM410.545 73.2326H413.987V76.6744H410.545V73.2326ZM413.987 73.2326H417.429V76.6744H413.987V73.2326ZM413.987 76.6744H417.429V80.1163H413.987V76.6744ZM410.545 76.6744H413.987V80.1163H410.545V76.6744ZM417.429 73.2326H420.871V76.6744H417.429V73.2326ZM420.871 73.2326H424.313V76.6744H420.871V73.2326ZM417.429 76.6744H420.871V80.1163H417.429V76.6744ZM417.429 69.7907H420.871V73.2326H417.429V69.7907ZM417.429 66.3488H420.871V69.7907H417.429V66.3488ZM420.871 66.3488H424.313V69.7907H420.871V66.3488ZM420.871 69.7907H424.313V73.2326H420.871V69.7907ZM424.313 66.3488H427.754V69.7907H424.313V66.3488ZM427.754 62.907H431.196V66.3488H427.754V62.907ZM427.754 59.4651H431.196V62.907H427.754V59.4651ZM427.754 56.0233H431.196V59.4651H427.754V56.0233ZM424.313 56.0233H427.754V59.4651H424.313V56.0233ZM420.871 56.0233H424.313V59.4651H420.871V56.0233ZM420.871 59.4651H424.313V62.907H420.871V59.4651ZM417.429 59.4651H420.871V62.907H417.429V59.4651ZM417.429 62.907H420.871V66.3488H417.429V62.907ZM420.871 62.907H424.313V66.3488H420.871V62.907ZM424.313 62.907H427.754V66.3488H424.313V62.907ZM424.313 59.4651H427.754V62.907H424.313V59.4651ZM417.429 56.0233H420.871V59.4651H417.429V56.0233ZM417.429 52.5814H420.871V56.0233H417.429V52.5814ZM420.871 52.5814H424.313V56.0233H420.871V52.5814ZM420.871 49.1395H424.313V52.5814H420.871V49.1395ZM424.313 49.1395H427.754V52.5814H424.313V49.1395ZM427.754 49.1395H431.196V52.5814H427.754V49.1395ZM427.754 52.5814H431.196V56.0233H427.754V52.5814ZM424.313 52.5814H427.754V56.0233H424.313V52.5814ZM417.429 49.1395H420.871V52.5814H417.429V49.1395ZM417.429 45.6977H420.871V49.1395H417.429V45.6977ZM420.871 45.6977H424.313V49.1395H420.871V45.6977ZM420.871 42.2558H424.313V45.6977H420.871V42.2558ZM424.313 42.2558H427.754V45.6977H424.313V42.2558ZM427.754 42.2558H431.196V45.6977H427.754V42.2558ZM427.754 45.6977H431.196V49.1395H427.754V45.6977ZM424.313 45.6977H427.754V49.1395H424.313V45.6977ZM417.429 42.2558H420.871V45.6977H417.429V42.2558ZM403.661 28.4884H407.103V31.9302H403.661V28.4884ZM403.661 31.9302H407.103V35.3721H403.661V31.9302ZM407.103 31.9302H410.545V35.3721H407.103V31.9302ZM407.103 28.4884H410.545V31.9302H407.103V28.4884ZM400.22 35.3721H403.661V38.814H400.22V35.3721ZM396.778 35.3721H400.22V38.814H396.778V35.3721ZM400.22 38.814H403.661V42.2558H400.22V38.814ZM396.778 38.814H400.22V42.2558H396.778V38.814ZM410.545 28.4884H413.987V31.9302H410.545V28.4884ZM413.987 28.4884H417.429V31.9302H413.987V28.4884ZM413.987 31.9302H417.429V35.3721H413.987V31.9302ZM410.545 31.9302H413.987V35.3721H410.545V31.9302ZM417.429 28.4884H420.871V31.9302H417.429V28.4884ZM420.871 28.4884H424.313V31.9302H420.871V28.4884ZM420.871 31.9302H424.313V35.3721H420.871V31.9302ZM417.429 31.9302H420.871V35.3721H417.429V31.9302ZM431.196 38.814H434.638V42.2558H431.196V38.814ZM431.196 35.3721H434.638V38.814H431.196V35.3721ZM434.638 35.3721H438.08V38.814H434.638V35.3721ZM434.638 38.814H438.08V42.2558H434.638V38.814ZM427.754 35.3721H431.196V38.814H427.754V35.3721ZM424.313 35.3721H427.754V38.814H424.313V35.3721ZM420.871 35.3721H424.313V38.814H420.871V35.3721ZM417.429 35.3721H420.871V38.814H417.429V35.3721ZM420.871 38.814H424.313V42.2558H420.871V38.814ZM424.313 38.814H427.754V42.2558H424.313V38.814ZM427.754 38.814H431.196V42.2558H427.754V38.814ZM417.429 38.814H420.871V42.2558H417.429V38.814ZM393.336 80.1163H396.778V83.5581H393.336V80.1163ZM424.313 31.9302H427.754V35.3721H424.313V31.9302ZM393.336 38.814H396.778V42.2558H393.336V38.814ZM410.545 80.1163H413.987V83.5581H410.545V80.1163ZM424.313 69.7907H427.754V73.2326H424.313V69.7907ZM427.754 66.3488H431.196V69.7907H427.754V66.3488ZM427.754 69.7907H431.196V73.2326H427.754V69.7907ZM427.754 73.2326H431.196V76.6744H427.754V73.2326ZM424.313 73.2326H427.754V76.6744H424.313V73.2326ZM431.196 73.2326H434.638V76.6744H431.196V73.2326ZM434.638 73.2326H438.08V76.6744H434.638V73.2326ZM434.638 76.6744H438.08V80.1163H434.638V76.6744ZM431.196 76.6744H434.638V80.1163H431.196V76.6744ZM424.313 76.6744H427.754V80.1163H424.313V76.6744ZM420.871 76.6744H424.313V80.1163H420.871V76.6744ZM427.754 76.6744H431.196V80.1163H427.754V76.6744ZM424.313 80.1163H427.754V83.5581H424.313V80.1163ZM420.871 80.1163H424.313V83.5581H420.871V80.1163ZM427.754 80.1163H431.196V83.5581H427.754V80.1163ZM431.196 80.1163H434.638V83.5581H431.196V80.1163ZM427.754 83.5581H431.196V87H427.754V83.5581ZM420.871 83.5581H424.313V87H420.871V83.5581ZM424.313 83.5581H427.754V87H424.313V83.5581ZM400.22 31.9302H403.661V35.3721H400.22V31.9302Z" fill="#990003"/>
</svg>
